<?xml version="1.0" encoding="utf-8"?>
<!-- Generator: Adobe Illustrator 16.0.0, SVG Export Plug-In . SVG Version: 6.00 Build 0)  -->
<!DOCTYPE svg PUBLIC "-//W3C//DTD SVG 1.1 Basic//EN" "http://www.w3.org/Graphics/SVG/1.1/DTD/svg11-basic.dtd">
<svg version="1.1" baseProfile="basic" id="Layer_1"
	 xmlns="http://www.w3.org/2000/svg" xmlns:xlink="http://www.w3.org/1999/xlink" x="0px" y="0px" width="769.554px"
	 height="1903px" viewBox="0 0 769.554 1903" xml:space="preserve">
<path fill="#FFFFFF" stroke="#000000" stroke-width="10" stroke-miterlimit="10" d="M624.742,0c0,0,16,221-71.488,250.915
	c-113.209,38.709-335.83-78.405-455.06-68.457C55.742,186,12.769,226.138,8.742,251c-25.451,157.109,199,149,292.903,196.497
	c193.328,97.786,81.89,321.665,6.452,383.861C269.693,863.02,89.933,999.472,63.742,1023c-59,53-117,185,70.162,244.041
	c55.913,17.638,295.767,26.717,422.935,69.862c180.646,61.29,193.235,185.469,175.903,217.097
	c-93.193,170.064-329.024,113.925-336,163c-10.83,76.188,6,186,6,186"/>
</svg>
